<mxfile host="app.diagrams.net" modified="2023-11-07T20:58:29.393Z" agent="Mozilla/5.0 (Windows NT 10.0; Win64; x64) AppleWebKit/537.36 (KHTML, like Gecko) Chrome/112.0.0.0 Safari/537.36 Edg/112.0.1722.64" etag="oVvdSPBLAEBRapgru5hs" version="22.0.8" type="device">
  <diagram name="Pagina-1" id="0KON9GbJji9hxU-3oDBn">
    <mxGraphModel dx="1042" dy="573" grid="1" gridSize="10" guides="1" tooltips="1" connect="1" arrows="1" fold="1" page="1" pageScale="1" pageWidth="1169" pageHeight="827" math="0" shadow="0">
      <root>
        <mxCell id="0" />
        <mxCell id="1" parent="0" />
        <mxCell id="_Ht5Vt9Y4dOynki1kawK-1" value="Actor" style="shape=umlActor;verticalLabelPosition=bottom;verticalAlign=top;html=1;outlineConnect=0;" vertex="1" parent="1">
          <mxGeometry x="170" y="270" width="30" height="60" as="geometry" />
        </mxCell>
        <mxCell id="_Ht5Vt9Y4dOynki1kawK-2" value="REGISTRAZIONE" style="ellipse;whiteSpace=wrap;html=1;" vertex="1" parent="1">
          <mxGeometry x="350" y="20" width="120" height="80" as="geometry" />
        </mxCell>
        <mxCell id="_Ht5Vt9Y4dOynki1kawK-3" value="" style="endArrow=none;html=1;rounded=0;" edge="1" parent="1" source="_Ht5Vt9Y4dOynki1kawK-1" target="_Ht5Vt9Y4dOynki1kawK-2">
          <mxGeometry width="50" height="50" relative="1" as="geometry">
            <mxPoint x="510" y="320" as="sourcePoint" />
            <mxPoint x="560" y="270" as="targetPoint" />
          </mxGeometry>
        </mxCell>
        <mxCell id="_Ht5Vt9Y4dOynki1kawK-4" value="RICERCA VEICOLO" style="ellipse;whiteSpace=wrap;html=1;" vertex="1" parent="1">
          <mxGeometry x="380" y="190" width="120" height="80" as="geometry" />
        </mxCell>
        <mxCell id="_Ht5Vt9Y4dOynki1kawK-5" value="PAGAMENTO" style="ellipse;whiteSpace=wrap;html=1;" vertex="1" parent="1">
          <mxGeometry x="370" y="420" width="120" height="80" as="geometry" />
        </mxCell>
        <mxCell id="_Ht5Vt9Y4dOynki1kawK-6" value="" style="endArrow=none;html=1;rounded=0;entryX=0.04;entryY=0.733;entryDx=0;entryDy=0;entryPerimeter=0;" edge="1" parent="1" target="_Ht5Vt9Y4dOynki1kawK-4">
          <mxGeometry width="50" height="50" relative="1" as="geometry">
            <mxPoint x="210" y="280" as="sourcePoint" />
            <mxPoint x="560" y="270" as="targetPoint" />
          </mxGeometry>
        </mxCell>
        <mxCell id="_Ht5Vt9Y4dOynki1kawK-8" value="" style="endArrow=none;html=1;rounded=0;entryX=-0.03;entryY=0.393;entryDx=0;entryDy=0;entryPerimeter=0;" edge="1" parent="1" target="_Ht5Vt9Y4dOynki1kawK-5">
          <mxGeometry width="50" height="50" relative="1" as="geometry">
            <mxPoint x="210" y="290" as="sourcePoint" />
            <mxPoint x="395" y="259" as="targetPoint" />
          </mxGeometry>
        </mxCell>
      </root>
    </mxGraphModel>
  </diagram>
</mxfile>
